# xmcd CD database file
#
# Track frame offsets:
#	150
#	6612
#	23770
#	30147
#	35735
#	45442
#	48202
#	61862
#	71097
#	86827
#	103590
#	118847
#	124757
#	136182
#	147855
#	159845
#	167317
#	178455
#	190767
#	207050
#	214610
#	222552
#	238430
#	246225
#	251010
#	260065
#	269227
#	280070
#	299297
#
# Disc length: 4476 seconds
#
# Revision: 0
# Processed by: cddbd v1.5.2PL0 Copyright (c) Steve Scherf et al.
# Submitted via: CDex 1.50
#
DISCID=ba117a1d
DTITLE=Saori Kobayashi and Mariko Nanba - Azel: Panzer Dragoon RPG [CD2]
DYEAR=1998
DGENRE=New Age
TTITLE0=Trapped Underground
TTITLE1=Path to the Being
TTITLE2=Sealed Spirit
TTITLE3=Elevator Chase
TTITLE4=Giant Creature II
TTITLE5=Seperation
TTITLE6=Source of the Protective Flame
TTITLE7=Dream
TTITLE8=Sleeping Iron Ingot
TTITLE9=Imperial Air Force
TTITLE10=Giant Warship
TTITLE11=Fading Away
TTITLE12=Holy Chariot
TTITLE13=A Century Gone By
TTITLE14=Interception
TTITLE15=Awakening
TTITLE16=Conclusion
TTITLE17=VIllage of the Seekers
TTITLE18=The Forest's Cry
TTITLE19=The Red Ruins
TTITLE20=Into the Promised Land
TTITLE21=Overture to the End
TTITLE22=Tears
TTITLE23=Sestren
TTITLE24=Vision
TTITLE25=Vision II
TTITLE26=The Final Battle (Recurrence)
TTITLE27=Sona Mi Areru Ec Sancitu (Art Thou the Holy One)
TTITLE28=Sona Mi Areru Ec Sancitu (Prescription Vocal Club Mix)
EXTD=YEAR: 1998
EXTT0=
EXTT1=
EXTT2=
EXTT3=
EXTT4=
EXTT5=
EXTT6=
EXTT7=
EXTT8=
EXTT9=
EXTT10=
EXTT11=
EXTT12=
EXTT13=
EXTT14=
EXTT15=
EXTT16=
EXTT17=
EXTT18=
EXTT19=
EXTT20=
EXTT21=
EXTT22=
EXTT23=
EXTT24=
EXTT25=
EXTT26=
EXTT27=
EXTT28=
PLAYORDER=
